<svg xmlns="http://www.w3.org/2000/svg" viewBox="0 0 600 800" width="600" height="800">
  <rect width="600" height="800" fill="none" stroke="#ffffff" stroke-width="0.4" stroke-dasharray="1,60" stroke-opacity="0.05"/>

  <!-- Left hand reaching up -->
  <g transform="translate(188, 318)" fill="none" stroke="#ffffff" stroke-linecap="round" stroke-width="2.5" stroke-opacity="0.6">
    <path d="M -28 82 C -32 42 -36 -20 -40 -78"/>
    <path d="M -10 88 C -11 48 -12 -18 -14 -96"/>
    <path d="M 8 88 C 9 48 10 -18 11 -102"/>
    <path d="M 26 85 C 27 45 28 -14 30 -94"/>
    <path d="M 46 68 C 52 38 64 8 74 -28"/>
    <path d="M -36 80 Q 18 100 50 70" stroke-opacity="0.35" stroke-width="2"/>
  </g>

  <!-- Right hand reaching up (mirrored) -->
  <g transform="translate(412, 318) scale(-1,1)" fill="none" stroke="#ffffff" stroke-linecap="round" stroke-width="2.5" stroke-opacity="0.6">
    <path d="M -28 82 C -32 42 -36 -20 -40 -78"/>
    <path d="M -10 88 C -11 48 -12 -18 -14 -96"/>
    <path d="M 8 88 C 9 48 10 -18 11 -102"/>
    <path d="M 26 85 C 27 45 28 -14 30 -94"/>
    <path d="M 46 68 C 52 38 64 8 74 -28"/>
    <path d="M -36 80 Q 18 100 50 70" stroke-opacity="0.35" stroke-width="2"/>
  </g>

  <!-- Faint gap / space between the hands -->
  <line x1="300" y1="220" x2="300" y2="400" stroke="#ffffff" stroke-width="0.5" stroke-opacity="0.08" stroke-dasharray="3,8"/>

  <text x="300" y="96" font-family="Georgia, serif" font-size="13" fill="#ffffff" fill-opacity="0.65" text-anchor="middle" letter-spacing="5">TRUNK THEATRE</text>
  <line x1="120" y1="112" x2="480" y2="112" stroke="#ffffff" stroke-width="0.5" stroke-opacity="0.2"/>

  <text x="300" y="565" font-family="Georgia, serif" font-size="96" font-weight="bold" fill="#ffffff" text-anchor="middle" letter-spacing="-2">BETRAYAL</text>

  <line x1="160" y1="596" x2="440" y2="596" stroke="#ffffff" stroke-width="0.8" stroke-opacity="0.25"/>
  <text x="300" y="634" font-family="Georgia, serif" font-size="16" fill="#ffffff" fill-opacity="0.6" text-anchor="middle" letter-spacing="3">NOV 4 – 22</text>
  <text x="300" y="762" font-family="Georgia, serif" font-size="11" fill="#ffffff" fill-opacity="0.25" text-anchor="middle" letter-spacing="4">VARSCONA THEATRE · EDMONTON</text>
</svg>
