<svg xmlns="http://www.w3.org/2000/svg" viewBox="0 0 600 800" width="600" height="800">
  <defs>
    <linearGradient id="bg" x1="0%" y1="0%" x2="0%" y2="100%">
      <stop offset="0%" stop-color="#00C09A"/>
      <stop offset="100%" stop-color="#009e7e"/>
    </linearGradient>
  </defs>
  <rect width="600" height="800" fill="url(#bg)"/>
  <rect width="600" height="800" fill="none" stroke="#ffffff" stroke-width="0.4" stroke-dasharray="1,60" stroke-opacity="0.07"/>

  <!-- Icon: phone receiver -->
  <g transform="translate(300, 310)" fill="none" stroke="#ffffff" stroke-opacity="0.6" stroke-width="3" stroke-linecap="round" stroke-linejoin="round">
    <path d="M-60,-80 Q-80,-60 -70,-30 L-50,10 Q-45,25 -30,20 L-10,12 Q0,8 5,18 L20,55 Q25,65 15,72 L-5,82 Q-20,90 -10,105 Q30,160 80,140 Q95,133 90,118 L78,98 Q68,83 78,75 L98,60 Q108,52 100,38 L85,5 Q78,-10 62,-8 L42,0 Q28,5 20,-8 L5,-50 Q-2,-65 18,-78 L38,-88 Q55,-95 48,-112 Q20,-170 -30,-155 Q-50,-148 -60,-130 Z"/>
  </g>

  <!-- Company -->
  <text x="300" y="96" font-family="Georgia, serif" font-size="13" fill="#ffffff" fill-opacity="0.65" text-anchor="middle" letter-spacing="5">TEATRO LIVE!</text>
  <line x1="120" y1="112" x2="480" y2="112" stroke="#ffffff" stroke-width="0.5" stroke-opacity="0.2"/>

  <!-- Title -->
  <text x="300" y="520" font-family="Georgia, serif" font-size="72" font-weight="bold" fill="#ffffff" text-anchor="middle" letter-spacing="-1">FULLY</text>
  <text x="300" y="600" font-family="Georgia, serif" font-size="72" font-weight="bold" fill="#ffffff" fill-opacity="0.8" text-anchor="middle" letter-spacing="-1">COMMITTED</text>

  <!-- Date -->
  <line x1="160" y1="628" x2="440" y2="628" stroke="#ffffff" stroke-width="0.8" stroke-opacity="0.25"/>
  <text x="300" y="666" font-family="Georgia, serif" font-size="16" fill="#ffffff" fill-opacity="0.6" text-anchor="middle" letter-spacing="3">JULY 14 – AUG 2</text>

  <text x="300" y="762" font-family="Georgia, serif" font-size="11" fill="#ffffff" fill-opacity="0.25" text-anchor="middle" letter-spacing="4">VARSCONA THEATRE · EDMONTON</text>
</svg>
