<svg xmlns="http://www.w3.org/2000/svg" viewBox="0 0 600 800" width="600" height="800">
  <defs>
    <radialGradient id="bg" cx="50%" cy="45%" r="70%">
      <stop offset="0%" stop-color="#5c1212"/>
      <stop offset="55%" stop-color="#2a0606"/>
      <stop offset="100%" stop-color="#0a0101"/>
    </radialGradient>
  </defs>
  <rect width="600" height="800" fill="url(#bg)"/>
  <rect width="600" height="800" fill="none" stroke="#ffffff" stroke-width="0.4" stroke-dasharray="1,60" stroke-opacity="0.05"/>

  <!-- Icon: stick figure with memory arcs -->
  <g transform="translate(300, 310)" fill="none" stroke="#ffffff" stroke-linecap="round" stroke-linejoin="round">
    <!-- Head -->
    <circle cx="0" cy="-110" r="32" stroke-width="3" stroke-opacity="0.6"/>
    <!-- Spine -->
    <line x1="0" y1="-78" x2="0" y2="20" stroke-width="3" stroke-opacity="0.6"/>
    <!-- Arms -->
    <line x1="0" y1="-50" x2="-70" y2="0" stroke-width="3" stroke-opacity="0.6"/>
    <line x1="0" y1="-50" x2="70" y2="0" stroke-width="3" stroke-opacity="0.6"/>
    <!-- Legs -->
    <line x1="0" y1="20" x2="-50" y2="110" stroke-width="3" stroke-opacity="0.6"/>
    <line x1="0" y1="20" x2="50" y2="110" stroke-width="3" stroke-opacity="0.6"/>
    <!-- Memory arcs emanating from head -->
    <path d="M 38,-120 Q 80,-80 65,-40" stroke-width="2" stroke-opacity="0.35" stroke-dasharray="5,6"/>
    <path d="M 52,-128 Q 110,-78 90,-30" stroke-width="1.5" stroke-opacity="0.2" stroke-dasharray="4,7"/>
    <path d="M 62,-138 Q 135,-75 108,-18" stroke-width="1" stroke-opacity="0.12" stroke-dasharray="3,8"/>
  </g>

  <!-- Company -->
  <text x="300" y="96" font-family="Georgia, serif" font-size="13" fill="#ffffff" fill-opacity="0.65" text-anchor="middle" letter-spacing="5">TRUNK THEATRE</text>
  <line x1="120" y1="112" x2="480" y2="112" stroke="#ffffff" stroke-width="0.5" stroke-opacity="0.2"/>

  <!-- Title -->
  <text x="300" y="510" font-family="Georgia, serif" font-size="76" font-weight="bold" fill="#ffffff" text-anchor="middle" letter-spacing="-1">MARJORIE</text>
  <text x="300" y="595" font-family="Georgia, serif" font-size="76" font-weight="bold" fill="#ffffff" fill-opacity="0.75" text-anchor="middle" letter-spacing="-1">PRIME</text>

  <!-- Date -->
  <line x1="160" y1="625" x2="440" y2="625" stroke="#ffffff" stroke-width="0.8" stroke-opacity="0.25"/>
  <text x="300" y="665" font-family="Georgia, serif" font-size="16" fill="#ffffff" fill-opacity="0.6" text-anchor="middle" letter-spacing="3">APRIL 15 – MAY 10</text>

  <text x="300" y="762" font-family="Georgia, serif" font-size="11" fill="#ffffff" fill-opacity="0.25" text-anchor="middle" letter-spacing="4">VARSCONA THEATRE · EDMONTON</text>
</svg>
