<svg xmlns="http://www.w3.org/2000/svg" viewBox="0 0 600 800" width="600" height="800">
  <rect width="600" height="800" fill="none" stroke="#ffffff" stroke-width="0.4" stroke-dasharray="1,60" stroke-opacity="0.07"/>

  <!-- Cliff left -->
  <path d="M60,140 L60,370 L180,370" fill="none" stroke="#ffffff" stroke-opacity="0.45" stroke-width="2.5" stroke-linejoin="round" stroke-linecap="round"/>
  <!-- Cliff right -->
  <path d="M540,140 L540,370 L420,370" fill="none" stroke="#ffffff" stroke-opacity="0.45" stroke-width="2.5" stroke-linejoin="round" stroke-linecap="round"/>
  <!-- Cliff top ledge -->
  <line x1="60" y1="140" x2="200" y2="140" stroke="#ffffff" stroke-opacity="0.35" stroke-width="2" stroke-linecap="round"/>
  <line x1="540" y1="140" x2="400" y2="140" stroke="#ffffff" stroke-opacity="0.35" stroke-width="2" stroke-linecap="round"/>

  <!-- Popcorn pieces falling (waterfall) -->
  <!-- Column 1 -->
  <ellipse cx="230" cy="175" rx="12" ry="10" fill="none" stroke="#ffffff" stroke-opacity="0.7" stroke-width="2"/>
  <ellipse cx="225" cy="215" rx="10" ry="12" fill="none" stroke="#ffffff" stroke-opacity="0.65" stroke-width="2"/>
  <ellipse cx="235" cy="258" rx="13" ry="9" fill="none" stroke="#ffffff" stroke-opacity="0.6" stroke-width="2"/>
  <ellipse cx="228" cy="298" rx="11" ry="11" fill="none" stroke="#ffffff" stroke-opacity="0.55" stroke-width="2"/>
  <ellipse cx="233" cy="338" rx="12" ry="10" fill="none" stroke="#ffffff" stroke-opacity="0.45" stroke-width="1.8"/>

  <!-- Column 2 -->
  <ellipse cx="270" cy="160" rx="11" ry="13" fill="none" stroke="#ffffff" stroke-opacity="0.7" stroke-width="2"/>
  <ellipse cx="265" cy="203" rx="13" ry="10" fill="none" stroke="#ffffff" stroke-opacity="0.65" stroke-width="2"/>
  <ellipse cx="272" cy="246" rx="10" ry="12" fill="none" stroke="#ffffff" stroke-opacity="0.6" stroke-width="2"/>
  <ellipse cx="268" cy="288" rx="12" ry="11" fill="none" stroke="#ffffff" stroke-opacity="0.5" stroke-width="1.8"/>
  <ellipse cx="274" cy="330" rx="11" ry="10" fill="none" stroke="#ffffff" stroke-opacity="0.4" stroke-width="1.5"/>

  <!-- Column 3 (centre) -->
  <ellipse cx="300" cy="155" rx="13" ry="11" fill="none" stroke="#ffffff" stroke-opacity="0.75" stroke-width="2.2"/>
  <ellipse cx="298" cy="196" rx="11" ry="13" fill="none" stroke="#ffffff" stroke-opacity="0.68" stroke-width="2"/>
  <ellipse cx="302" cy="240" rx="12" ry="10" fill="none" stroke="#ffffff" stroke-opacity="0.62" stroke-width="2"/>
  <ellipse cx="299" cy="282" rx="10" ry="12" fill="none" stroke="#ffffff" stroke-opacity="0.52" stroke-width="1.8"/>
  <ellipse cx="301" cy="324" rx="13" ry="10" fill="none" stroke="#ffffff" stroke-opacity="0.42" stroke-width="1.5"/>

  <!-- Column 4 -->
  <ellipse cx="330" cy="160" rx="10" ry="12" fill="none" stroke="#ffffff" stroke-opacity="0.7" stroke-width="2"/>
  <ellipse cx="335" cy="203" rx="12" ry="10" fill="none" stroke="#ffffff" stroke-opacity="0.65" stroke-width="2"/>
  <ellipse cx="328" cy="246" rx="11" ry="13" fill="none" stroke="#ffffff" stroke-opacity="0.58" stroke-width="2"/>
  <ellipse cx="332" cy="288" rx="13" ry="10" fill="none" stroke="#ffffff" stroke-opacity="0.48" stroke-width="1.8"/>
  <ellipse cx="329" cy="330" rx="10" ry="11" fill="none" stroke="#ffffff" stroke-opacity="0.38" stroke-width="1.5"/>

  <!-- Column 5 -->
  <ellipse cx="368" cy="175" rx="11" ry="10" fill="none" stroke="#ffffff" stroke-opacity="0.68" stroke-width="2"/>
  <ellipse cx="372" cy="216" rx="13" ry="11" fill="none" stroke="#ffffff" stroke-opacity="0.62" stroke-width="2"/>
  <ellipse cx="365" cy="258" rx="10" ry="13" fill="none" stroke="#ffffff" stroke-opacity="0.55" stroke-width="2"/>
  <ellipse cx="370" cy="300" rx="12" ry="10" fill="none" stroke="#ffffff" stroke-opacity="0.45" stroke-width="1.8"/>
  <ellipse cx="366" cy="340" rx="11" ry="12" fill="none" stroke="#ffffff" stroke-opacity="0.35" stroke-width="1.5"/>

  <!-- Splash / pile of popcorn at bottom -->
  <ellipse cx="245" cy="372" rx="14" ry="10" fill="none" stroke="#ffffff" stroke-opacity="0.5" stroke-width="1.8"/>
  <ellipse cx="275" cy="378" rx="12" ry="9" fill="none" stroke="#ffffff" stroke-opacity="0.55" stroke-width="1.8"/>
  <ellipse cx="300" cy="374" rx="15" ry="10" fill="none" stroke="#ffffff" stroke-opacity="0.6" stroke-width="2"/>
  <ellipse cx="326" cy="378" rx="12" ry="9" fill="none" stroke="#ffffff" stroke-opacity="0.55" stroke-width="1.8"/>
  <ellipse cx="354" cy="372" rx="13" ry="10" fill="none" stroke="#ffffff" stroke-opacity="0.5" stroke-width="1.8"/>
  <!-- Pool line -->
  <path d="M180,385 Q300,378 420,385" fill="none" stroke="#ffffff" stroke-opacity="0.2" stroke-width="1.5" stroke-linecap="round"/>

  <!-- Company -->
  <text x="300" y="96" font-family="Georgia, serif" font-size="13" fill="#ffffff" fill-opacity="0.65" text-anchor="middle" letter-spacing="5">TEATRO LIVE!</text>
  <line x1="120" y1="112" x2="480" y2="112" stroke="#ffffff" stroke-width="0.5" stroke-opacity="0.2"/>

  <!-- Title -->
  <text x="300" y="520" font-family="Georgia, serif" font-size="80" font-weight="bold" fill="#ffffff" text-anchor="middle" letter-spacing="-1">POPCORN</text>
  <text x="300" y="608" font-family="Georgia, serif" font-size="80" font-weight="bold" fill="#ffffff" fill-opacity="0.8" text-anchor="middle" letter-spacing="-1">FALLS</text>

  <!-- Date -->
  <line x1="160" y1="634" x2="440" y2="634" stroke="#ffffff" stroke-width="0.8" stroke-opacity="0.25"/>
  <text x="300" y="672" font-family="Georgia, serif" font-size="16" fill="#ffffff" fill-opacity="0.6" text-anchor="middle" letter-spacing="3">FEB 19 – MAR 7</text>

  <text x="300" y="762" font-family="Georgia, serif" font-size="11" fill="#ffffff" fill-opacity="0.25" text-anchor="middle" letter-spacing="4">VARSCONA THEATRE · EDMONTON</text>
</svg>
